<svg width="24" height="24" viewBox="0 0 24 24" xmlns="http://www.w3.org/2000/svg">
    <path d="M6 3h12a3 3 0 0 1 3 3v12a3 3 0 0 1-3 3H6a3 3 0 0 1-3-3V6a3 3 0 0 1 3-3z" fill="currentColor"/>
    <path d="M10.459 17h6.165c.208 0 .376-.17.376-.379v-2.62c-.667-.667-1-1.333-1-2v-2.5a.5.5 0 0 1 .5-.5h.5c.006-1.333-.994-2-3-2H5v2h1.538c.255 0 .462.207.462.462v2.077a.462.462 0 0 1-.462.462H5v2.841a3 3 0 0 1 5.459 2.159V17zM7.5 18a1.5 1.5 0 1 0-.001-3.001A1.5 1.5 0 0 0 7.5 18zm.962-9h2.077c.255 0 .462.207.462.462v2.077a.462.462 0 0 1-.462.462H8.462A.462.462 0 0 1 8 11.539V9.462C8 9.207 8.207 9 8.462 9zm4 0h2.077c.255 0 .462.193.462.431v6.138c0 .238-.207.431-.462.431h-2.077c-.255 0-.462-.193-.462-.431V9.431c0-.238.207-.431.462-.431z"
          fill="#fff"/>
    <path fill-rule="evenodd" clip-rule="evenodd"
          d="M10.459 17h6.165c.208 0 .376-.17.376-.379v-2.62c-.667-.667-1-1.333-1-2v-2.5a.5.5 0 0 1 .5-.5h.5c.006-1.333-.994-2-3-2H5v2h1.538c.255 0 .462.207.462.462v2.077a.462.462 0 0 1-.462.462H5v2.841A3 3 0 0 1 10.459 17zm.08-8H8.462A.462.462 0 0 0 8 9.462v2.077c0 .255.207.462.462.462h2.077a.462.462 0 0 0 .462-.462V9.462A.462.462 0 0 0 10.539 9zm4 0h-2.077c-.255 0-.462.193-.462.431v6.138c0 .238.207.431.462.431h2.077c.255 0 .462-.193.462-.431V9.431c0-.238-.207-.431-.462-.431z"
          fill="#fff"/>
    <path d="M7.5 18a1.5 1.5 0 1 0-.001-3.001A1.5 1.5 0 0 0 7.5 18z" fill="#fff"/>
</svg>