<svg width="16" height="16" viewBox="0 0 16 16" xmlns="http://www.w3.org/2000/svg">
    <g clip-path="url(#7ce3950eeaa7a53924b63d25a348ddbc__a)">
        <g filter="url(#7ce3950eeaa7a53924b63d25a348ddbc__b)">
            <rect x="1" y="1" width="14" height="14" rx="3.5" stroke="#fff" stroke-width="2"/>
        </g>
        <rect x="2" y="2" width="12" height="12" rx="2.5" fill="#3CB300"/>
    </g>
    <path fill-rule="evenodd" clip-rule="evenodd" d="M4.25 13a1.25 1.25 0 1 1 0-2.5 1.25 1.25 0 0 1 0 2.5z"
          fill="#fff"/>
    <path fill-rule="evenodd" clip-rule="evenodd"
          d="M3.5 8h2.192C5.862 8 6 7.862 6 7.692V6.308A.308.308 0 0 0 5.692 6H3.5V5H9c2 0 2 .333 2 1v5.692c0 .17-.138.308-.308.308H6.5v-.5a2 2 0 0 0-2-2h-1V8zm6.808-2a.307.307 0 0 0-.308.308v2.377c0 .419.213.808.565 1.035L11 10V6h-.692zm-3 0A.308.308 0 0 0 7 6.308v4.384c0 .17.138.308.308.308h1.384c.17 0 .308-.138.308-.308V6.308A.308.308 0 0 0 8.692 6H7.308z"
          fill="#fff"/>
    <defs>
        <filter id="7ce3950eeaa7a53924b63d25a348ddbc__b" x="-1" y="-1" width="18" height="18"
                filterUnits="userSpaceOnUse" color-interpolation-filters="sRGB">
            <feFlood flood-opacity="0" result="BackgroundImageFix"/>
            <feColorMatrix in="SourceAlpha" values="0 0 0 0 0 0 0 0 0 0 0 0 0 0 0 0 0 0 127 0" result="hardAlpha"/>
            <feOffset/>
            <feGaussianBlur stdDeviation=".5"/>
            <feColorMatrix values="0 0 0 0 0 0 0 0 0 0 0 0 0 0 0 0 0 0 0.3 0"/>
            <feBlend in2="BackgroundImageFix" result="effect1_dropShadow_23664_23421"/>
            <feBlend in="SourceGraphic" in2="effect1_dropShadow_23664_23421" result="shape"/>
        </filter>
        <clipPath id="7ce3950eeaa7a53924b63d25a348ddbc__a">
            <path fill="#fff" d="M0 0h16v16H0z"/>
        </clipPath>
    </defs>
</svg>