<svg width="16" height="16" viewBox="0 0 16 16" xmlns="http://www.w3.org/2000/svg">
    <path fill-rule="evenodd" clip-rule="evenodd"
          d="M13 13.616c0 .212-.188.384-.4.384h-1.332a.5.5 0 0 1-.416-.223L10 12.5H6l-.852 1.277a.5.5 0 0 1-.416.223H3.4c-.212 0-.4-.172-.4-.384V7l-.927-.426A.25.25 0 0 1 2 6.396V4.75C2 4 2.724 4 3 4v-.21c0-.649.352-1.225 1-1.426C4.808 2.114 5.843 2 8 2c2.156 0 3.192.114 4 .364.648.201 1 .777 1 1.427V4c.276 0 1 0 1 .75v1.648a.25.25 0 0 1-.071.175L13 7.01v6.605zM8 3.5c-1.988 0-3.235.14-3.74.417a.5.5 0 0 0-.26.438v3.27c0 .207.15.375.333.375h7.334c.184 0 .333-.168.333-.375V4.251c-.001-.501-1.335-.751-4-.751zm3 8a1 1 0 1 0 0-2 1 1 0 0 0 0 2zm-6 0a1 1 0 1 0 0-2 1 1 0 0 0 0 2z"
          fill="white"/>
</svg>